<svg xmlns="http://www.w3.org/2000/svg" width="196.84" height="27.265" viewBox="0 0 196.84 27.265">
  <path id="Trazado_1754" data-name="Trazado 1754" d="M-89.162-23.17c.875,0,1.47.315,2.555,1.33l2.52-3.43a7.017,7.017,0,0,0-3.115-1.4,12.426,12.426,0,0,0-1.96-.21c-3.4,0-5.46,1.855-5.46,4.9,0,1.925.945,3.745,3.01,5.565l2.24,1.96a17.408,17.408,0,0,1,3.64,4.305,5.643,5.643,0,0,1,.455,2.135A4.266,4.266,0,0,1-89.653-3.43,6.4,6.4,0,0,1-95.357-7l-3.255,4.34C-95.077-.35-92.872.385-89.9.385c3.57,0,5.95-1.33,7.455-4.165a8.5,8.5,0,0,0,.98-4.235c0-3.36-1.12-5.25-5.18-8.89L-88.077-18.2a14.728,14.728,0,0,1-2.31-2.485,1.952,1.952,0,0,1-.385-1.085A1.443,1.443,0,0,1-89.162-23.17Zm25.375-.665a15.059,15.059,0,0,1,.665-2.975A4.5,4.5,0,0,0-64-26.88a11.637,11.637,0,0,0-8.89,3.955,19.585,19.585,0,0,0-5.04,9.03,36.886,36.886,0,0,0-.875,7.14l-.14,2.555c-.035.735-.14,1.715-.245,2.38A6.592,6.592,0,0,1-79.747,0h5.39a11.234,11.234,0,0,1-.7-2.87c-.035-.56-.07-1.05-.07-1.89a30.753,30.753,0,0,1,.14-3.22h7.35v3.22a16.265,16.265,0,0,1-.21,2.625A11.34,11.34,0,0,1-68.443,0h5.32a14.868,14.868,0,0,1-.595-2.135,21.53,21.53,0,0,1-.21-2.625V-21.35C-63.928-22.19-63.858-23.135-63.788-23.835Zm-3.85,12.32H-74.5a15.111,15.111,0,0,1,.945-3.64,19.265,19.265,0,0,1,1.82-3.465,12.556,12.556,0,0,1,4.1-3.955Zm11.095-8.19,7.28,10.01V-4.69c0,.665-.1,1.925-.175,2.59a16.022,16.022,0,0,1-.6,2.1h5.25a11.218,11.218,0,0,1-.56-2.1,21.525,21.525,0,0,1-.21-2.59V-21.07c0-.805.07-1.75.14-2.485a15.083,15.083,0,0,1,.63-2.905h-5.25a15.083,15.083,0,0,1,.63,2.905,19,19,0,0,1,.14,2.485v4.8l-6.055-8.33a2.632,2.632,0,0,1,.595-1.855h-6.335a13.078,13.078,0,0,1,.665,2.905,19,19,0,0,1,.14,2.485V-4.69a21.525,21.525,0,0,1-.21,2.59,9.461,9.461,0,0,1-.6,2.1h5.285a11.218,11.218,0,0,1-.56-2.1,21.525,21.525,0,0,1-.21-2.59Zm29.085-2.24,5.145,4.06,5.145-4.06,1.4,17.535a5.745,5.745,0,0,1,.07.8A6.522,6.522,0,0,1-16.608,0h5.845a12.473,12.473,0,0,1-.98-2.94,18.985,18.985,0,0,1-.28-2.31l-1.435-17.5a5.419,5.419,0,0,1-.035-.735,5.088,5.088,0,0,1,.84-2.975h-5.7c-.1.91-.245,1.155-1.19,1.89l-2.765,2.205-2.765-2.205c-.945-.735-1.12-.98-1.19-1.89h-5.67a5.312,5.312,0,0,1,.805,2.975v.735L-32.6-5.25a16.107,16.107,0,0,1-.665,3.675A9.989,9.989,0,0,1-33.9,0h5.88a6.522,6.522,0,0,1-.91-3.605,5.932,5.932,0,0,1,.035-.8Zm33.985-1.89a15.059,15.059,0,0,1,.665-2.975,4.5,4.5,0,0,0-.875-.07,11.637,11.637,0,0,0-8.89,3.955,19.585,19.585,0,0,0-5.04,9.03,36.887,36.887,0,0,0-.875,7.14L-8.627-4.2c-.035.735-.14,1.715-.245,2.38A6.592,6.592,0,0,1-9.432,0h5.39a11.233,11.233,0,0,1-.7-2.87c-.035-.56-.07-1.05-.07-1.89a30.751,30.751,0,0,1,.14-3.22h7.35v3.22a16.265,16.265,0,0,1-.21,2.625A11.341,11.341,0,0,1,1.873,0h5.32A14.868,14.868,0,0,1,6.6-2.135a21.531,21.531,0,0,1-.21-2.625V-21.35C6.388-22.19,6.458-23.135,6.528-23.835Zm-3.85,12.32h-6.86a15.111,15.111,0,0,1,.945-3.64,19.266,19.266,0,0,1,1.82-3.465,12.556,12.556,0,0,1,4.1-3.955Zm19.985,7.84L18.917-13.65l3.745-5.53c1.54-2.275,2.065-3.325,2.065-4.34A2.68,2.68,0,0,0,22.8-26.18a7.048,7.048,0,0,0-2.45-.28H9.258a13.078,13.078,0,0,1,.665,2.905,19,19,0,0,1,.14,2.485V-4.69a21.525,21.525,0,0,1-.21,2.59A9.462,9.462,0,0,1,9.258,0h5.285a11.218,11.218,0,0,1-.56-2.1,21.525,21.525,0,0,1-.21-2.59V-5.95l2.66-3.92,1.89,5.495a9.812,9.812,0,0,1,.63,3.01A13.28,13.28,0,0,1,18.847,0h5.635a10.655,10.655,0,0,1-1.435-2.695Zm-4.27-15.68-4.62,6.825v-10.5h5.25c.98,0,1.19.14,1.19.7a1.69,1.69,0,0,1-.385.805l-.35.525ZM26.338-2.1a9.462,9.462,0,0,1-.6,2.1h5.285a11.218,11.218,0,0,1-.56-2.1,21.525,21.525,0,0,1-.21-2.59V-21.07c0-.805.07-1.75.14-2.485a15.083,15.083,0,0,1,.63-2.905H25.743a13.078,13.078,0,0,1,.665,2.905,19,19,0,0,1,.14,2.485V-4.69A21.525,21.525,0,0,1,26.338-2.1ZM37.607-19.7,44.887-9.7V-4.69c0,.665-.1,1.925-.175,2.59a16.022,16.022,0,0,1-.6,2.1h5.25a11.218,11.218,0,0,1-.56-2.1,21.525,21.525,0,0,1-.21-2.59V-21.07c0-.805.07-1.75.14-2.485a15.083,15.083,0,0,1,.63-2.905h-5.25a15.083,15.083,0,0,1,.63,2.905,19,19,0,0,1,.14,2.485v4.8L38.833-24.6a2.632,2.632,0,0,1,.595-1.855H33.092a13.078,13.078,0,0,1,.665,2.905,19,19,0,0,1,.14,2.485V-4.69a21.525,21.525,0,0,1-.21,2.59,9.461,9.461,0,0,1-.6,2.1h5.285a11.218,11.218,0,0,1-.56-2.1,21.525,21.525,0,0,1-.21-2.59ZM73.9-13.58c0-7.805-4.48-13.3-10.85-13.3-7.49,0-11.83,4.97-11.83,13.545,0,4.83,1.19,8.365,3.745,10.85A9.74,9.74,0,0,0,62.492.385c4.165,0,7.035-1.47,9.17-4.83A17.644,17.644,0,0,0,73.9-13.58Zm-18.83.28c0-5.6,2.66-9.345,6.825-9.765a4.235,4.235,0,0,1,.665-.035c4.375,0,7.385,3.92,7.385,9.625,0,6.02-3.01,10.22-7.35,10.22C58.152-3.255,55.072-7.385,55.072-13.3Zm21.665-8.05a5.938,5.938,0,0,1-.77,1.645,6.463,6.463,0,0,0,1.19.175c1.47,0,2.695-1.75,2.695-3.85,0-1.785-.875-3.08-2.135-3.08-1.225,0-2.205,1.26-2.205,2.94A2.22,2.22,0,0,0,76.738-21.35Zm13.79-1.82c.875,0,1.47.315,2.555,1.33l2.52-3.43a7.017,7.017,0,0,0-3.115-1.4,12.426,12.426,0,0,0-1.96-.21c-3.4,0-5.46,1.855-5.46,4.9,0,1.925.945,3.745,3.01,5.565l2.24,1.96a17.408,17.408,0,0,1,3.64,4.305,5.643,5.643,0,0,1,.455,2.135A4.266,4.266,0,0,1,90.037-3.43,6.4,6.4,0,0,1,84.333-7L81.077-2.66C84.613-.35,86.818.385,89.793.385c3.57,0,5.95-1.33,7.455-4.165a8.5,8.5,0,0,0,.98-4.235c0-3.36-1.12-5.25-5.18-8.89L91.613-18.2a14.728,14.728,0,0,1-2.31-2.485,1.952,1.952,0,0,1-.385-1.085A1.443,1.443,0,0,1,90.528-23.17Z" transform="translate(98.613 26.88)" fill="#4e9bfb"/>
</svg>
